<svg width="647" height="623" viewBox="0 0 647 623" fill="none" xmlns="http://www.w3.org/2000/svg">
<mask id="path-1-inside-1_3_201" fill="white">
<path fill-rule="evenodd" clip-rule="evenodd" d="M323 311.969V64C300.028 64 277.779 67.0984 256.65 72.9001C194.594 90.6461 139.398 132.265 106 193.377L323 311.969Z"/>
</mask>
<path fill-rule="evenodd" clip-rule="evenodd" d="M323 311.969V64C300.028 64 277.779 67.0984 256.65 72.9001C194.594 90.6461 139.398 132.265 106 193.377L323 311.969Z" fill="#9A52E2"/>
<path d="M323 311.969L320.602 316.357L328 320.4V311.969H323ZM323 64H328V59H323V64ZM256.65 72.9001L255.326 68.0786L255.3 68.0856L255.275 68.0928L256.65 72.9001ZM106 193.377L101.612 190.979L99.2146 195.366L103.602 197.764L106 193.377ZM328 311.969V64H318V311.969H328ZM323 59C299.576 59 276.883 62.1595 255.326 68.0786L257.974 77.7217C278.676 72.0373 300.479 69 323 69V59ZM255.275 68.0928C191.986 86.1915 135.678 128.646 101.612 190.979L110.388 195.774C143.118 135.884 197.202 95.1007 258.024 77.7074L255.275 68.0928ZM103.602 197.764L320.602 316.357L325.398 307.582L108.398 188.989L103.602 197.764Z" fill="#DAD9D9" mask="url(#path-1-inside-1_3_201)"/>
<mask id="path-3-inside-2_3_201" fill="white">
<path fill-rule="evenodd" clip-rule="evenodd" d="M323.503 311.85L109.258 187C97.6913 206.848 89.1664 227.631 83.5405 248.808C67.6286 311.359 75.7967 380.003 111.781 439.628L323.503 311.85Z"/>
</mask>
<path fill-rule="evenodd" clip-rule="evenodd" d="M323.503 311.85L109.258 187C97.6913 206.848 89.1664 227.631 83.5405 248.808C67.6286 311.359 75.7967 380.003 111.781 439.628L323.503 311.85Z" fill="#E44DC3"/>
<path d="M323.503 311.85L326.087 316.131L333.304 311.775L326.02 307.53L323.503 311.85ZM109.258 187L111.775 182.68L107.455 180.163L104.938 184.483L109.258 187ZM83.5405 248.808L78.7081 247.524L78.7013 247.55L78.6948 247.575L83.5405 248.808ZM111.781 439.628L107.501 442.212L110.084 446.492L114.365 443.909L111.781 439.628ZM326.02 307.53L111.775 182.68L106.74 191.32L320.986 316.17L326.02 307.53ZM104.938 184.483C93.144 204.721 84.4478 225.919 78.7081 247.524L88.3729 250.092C93.885 229.343 102.239 208.975 113.578 189.517L104.938 184.483ZM78.6948 247.575C62.4667 311.369 70.7968 381.395 107.501 442.212L116.062 437.045C80.7966 378.611 72.7905 311.348 88.3862 250.04L78.6948 247.575ZM114.365 443.909L326.087 316.131L320.919 307.569L109.198 435.347L114.365 443.909Z" fill="#DAD9D9" mask="url(#path-3-inside-2_3_201)"/>
<mask id="path-5-inside-3_3_201" fill="white">
<path fill-rule="evenodd" clip-rule="evenodd" d="M323.665 311L109 435.127C120.499 455.013 134.318 472.723 149.918 488.11C196.344 532.948 260.003 559.898 329.625 558.22L323.665 311Z"/>
</mask>
<path fill-rule="evenodd" clip-rule="evenodd" d="M323.665 311L109 435.127C120.499 455.013 134.318 472.723 149.918 488.11C196.344 532.948 260.003 559.898 329.625 558.22L323.665 311Z" fill="#EF5F5F"/>
<path d="M323.665 311L328.664 310.879L328.461 302.451L321.163 306.672L323.665 311ZM109 435.127L106.497 430.798L102.169 433.301L104.671 437.629L109 435.127ZM149.918 488.11L146.407 491.67L146.425 491.689L146.444 491.707L149.918 488.11ZM329.625 558.22L329.745 563.218L334.744 563.098L334.623 558.099L329.625 558.22ZM321.163 306.672L106.497 430.798L111.503 439.455L326.168 315.328L321.163 306.672ZM104.671 437.629C116.397 457.907 130.492 475.971 146.407 491.67L153.429 484.551C138.145 469.474 124.602 452.12 113.328 432.624L104.671 437.629ZM146.444 491.707C193.793 537.436 258.732 564.93 329.745 563.218L329.504 553.221C261.274 554.866 198.895 528.461 153.391 484.514L146.444 491.707ZM334.623 558.099L328.664 310.879L318.667 311.12L324.626 558.34L334.623 558.099Z" fill="#DAD9D9" mask="url(#path-5-inside-3_3_201)"/>
<mask id="path-7-inside-4_3_201" fill="white">
<path fill-rule="evenodd" clip-rule="evenodd" d="M323.29 311.013V558.982C346.262 558.982 368.51 555.884 389.64 550.082C451.696 532.336 506.892 490.717 540.29 429.606L323.29 311.013Z"/>
</mask>
<path fill-rule="evenodd" clip-rule="evenodd" d="M323.29 311.013V558.982C346.262 558.982 368.51 555.884 389.64 550.082C451.696 532.336 506.892 490.717 540.29 429.606L323.29 311.013Z" fill="#ECDD55"/>
<path d="M323.29 311.013L325.688 306.626L318.29 302.583V311.013H323.29ZM323.29 558.982H318.29V563.982H323.29V558.982ZM389.64 550.082L390.964 554.904L390.989 554.897L391.015 554.889L389.64 550.082ZM540.29 429.606L544.677 432.004L547.075 427.616L542.688 425.218L540.29 429.606ZM318.29 311.013V558.982H328.29V311.013H318.29ZM323.29 563.982C346.713 563.982 369.407 560.823 390.964 554.904L388.316 545.261C367.614 550.945 345.81 553.982 323.29 553.982V563.982ZM391.015 554.889C454.304 536.791 510.612 494.336 544.677 432.004L535.902 427.208C503.172 487.098 449.087 527.882 388.265 545.275L391.015 554.889ZM542.688 425.218L325.688 306.626L320.892 315.401L537.892 433.993L542.688 425.218Z" fill="#DAD9D9" mask="url(#path-7-inside-4_3_201)"/>
<mask id="path-9-inside-5_3_201" fill="white">
<path fill-rule="evenodd" clip-rule="evenodd" d="M322.787 311.132L537.032 435.982C548.599 416.134 557.123 395.352 562.749 374.174C578.661 311.624 570.493 242.979 534.508 183.354L322.787 311.132Z"/>
</mask>
<path fill-rule="evenodd" clip-rule="evenodd" d="M322.787 311.132L537.032 435.982C548.599 416.134 557.123 395.352 562.749 374.174C578.661 311.624 570.493 242.979 534.508 183.354L322.787 311.132Z" fill="#65DE5B"/>
<path d="M322.787 311.132L320.203 306.851L312.985 311.207L320.269 315.452L322.787 311.132ZM537.032 435.982L534.515 440.302L538.835 442.82L541.352 438.5L537.032 435.982ZM562.749 374.174L567.582 375.458L567.588 375.433L567.595 375.407L562.749 374.174ZM534.508 183.354L538.789 180.771L536.206 176.49L531.925 179.073L534.508 183.354ZM320.269 315.452L534.515 440.302L539.55 431.662L325.304 306.812L320.269 315.452ZM541.352 438.5C553.146 418.262 561.842 397.064 567.582 375.458L557.917 372.891C552.405 393.64 544.051 414.007 532.712 433.465L541.352 438.5ZM567.595 375.407C583.823 311.613 575.493 241.587 538.789 180.771L530.228 185.938C565.493 244.371 573.499 311.634 557.904 372.942L567.595 375.407ZM531.925 179.073L320.203 306.851L325.37 315.413L537.092 187.635L531.925 179.073Z" fill="#DAD9D9" mask="url(#path-9-inside-5_3_201)"/>
<mask id="path-11-inside-6_3_201" fill="white">
<path fill-rule="evenodd" clip-rule="evenodd" d="M322.624 311.982L537.29 187.856C525.791 167.969 511.971 150.259 496.372 134.872C449.946 90.0339 386.287 63.0841 316.665 64.7624L322.624 311.982Z"/>
</mask>
<path fill-rule="evenodd" clip-rule="evenodd" d="M322.624 311.982L537.29 187.856C525.791 167.969 511.971 150.259 496.372 134.872C449.946 90.0339 386.287 63.0841 316.665 64.7624L322.624 311.982Z" fill="#3E99ED"/>
<path d="M322.624 311.982L317.626 312.103L317.829 320.531L325.127 316.311L322.624 311.982ZM537.29 187.856L539.793 192.184L544.121 189.681L541.618 185.353L537.29 187.856ZM496.372 134.872L499.883 131.312L499.864 131.294L499.845 131.275L496.372 134.872ZM316.665 64.7624L316.544 59.7638L311.546 59.8843L311.666 64.8829L316.665 64.7624ZM325.127 316.311L539.793 192.184L534.787 183.527L320.122 307.654L325.127 316.311ZM541.618 185.353C529.893 165.075 515.798 147.011 499.883 131.312L492.861 138.431C508.145 153.508 521.688 170.863 532.961 190.359L541.618 185.353ZM499.845 131.275C452.497 85.5463 387.558 58.052 316.544 59.7638L316.785 69.7609C385.016 68.1162 447.395 94.5215 492.898 138.468L499.845 131.275ZM311.666 64.8829L317.626 312.103L327.623 311.862L321.663 64.6419L311.666 64.8829Z" fill="#DAD9D9" mask="url(#path-11-inside-6_3_201)"/>
</svg>
